<?xml version="1.0" standalone="no"?>
<!DOCTYPE svg PUBLIC "-//W3C//DTD SVG 20010904//EN"
 "http://www.w3.org/TR/2001/REC-SVG-20010904/DTD/svg10.dtd">
<svg version="1.0" xmlns="http://www.w3.org/2000/svg"
 width="1988.000000pt" height="1988.000000pt" viewBox="0 0 1988.000000 1988.000000"
 preserveAspectRatio="xMidYMid meet">
<metadata>
Created by potrace 1.16, written by Peter Selinger 2001-2019
</metadata>
<g transform="translate(0.000000,1988.000000) scale(0.100000,-0.100000)"
fill="#000000" stroke="none">
<path d="M5155 16619 c-71 -60 -145 -122 -164 -137 l-34 -27 -86 94 -87 93
-74 -58 c-41 -32 -77 -59 -79 -60 -2 -2 29 -51 69 -110 l73 -108 -34 -28 c-19
-16 -93 -75 -166 -131 -73 -56 -132 -105 -132 -109 -1 -6 300 -390 489 -623
185 -229 410 -515 410 -521 0 -4 -22 -40 -50 -79 -94 -137 -189 -352 -231
-522 -124 -516 -3 -1051 331 -1458 58 -70 222 -235 234 -235 4 0 75 60 159
132 83 73 222 193 307 268 316 274 1073 930 1430 1239 30 26 216 188 413 359
196 171 372 323 389 337 32 27 32 27 15 58 -38 70 -127 178 -236 287 -227 226
-513 381 -836 450 -143 31 -430 39 -579 15 -127 -20 -281 -61 -386 -105 l-75
-30 -35 41 c-63 75 -682 822 -790 952 -57 70 -107 127 -110 126 -3 0 -63 -50
-135 -110z"/>
<path d="M4644 15143 c-48 -54 -118 -129 -154 -168 -36 -38 -106 -115 -155
-170 -50 -55 -122 -134 -160 -175 -112 -119 -283 -305 -525 -570 -123 -135
-255 -279 -294 -320 -39 -41 -87 -93 -106 -115 -46 -52 -371 -406 -532 -580
-111 -121 -291 -315 -353 -384 -117 -129 -487 -532 -725 -791 -69 -75 -265
-289 -437 -476 l-312 -341 -78 5 c-166 9 -300 -71 -369 -222 -89 -195 9 -428
214 -506 29 -11 70 -20 91 -20 23 0 47 -7 59 -17 11 -10 102 -157 203 -328
231 -393 462 -783 764 -1290 130 -220 259 -436 285 -480 26 -44 126 -213 222
-375 97 -162 242 -407 323 -545 81 -137 167 -281 190 -320 23 -38 114 -191
202 -340 88 -148 234 -394 323 -545 90 -151 208 -351 263 -443 55 -93 100
-174 100 -180 1 -7 -12 -39 -29 -72 -26 -54 -29 -69 -29 -160 0 -82 4 -109 22
-147 24 -54 99 -138 150 -169 l33 -21 -2 -251 -3 -252 -757 -3 -758 -2 0 -665
0 -665 8095 0 8095 0 0 665 0 665 -7167 2 -7168 3 -3 254 -2 254 22 16 c60 41
111 99 141 160 29 59 32 74 32 156 0 82 -3 97 -32 156 -58 118 -171 199 -296
214 l-57 7 -49 82 c-26 44 -115 194 -196 331 -82 138 -210 354 -285 480 -120
201 -324 545 -525 885 -34 58 -155 260 -267 450 -213 359 -487 820 -736 1240
-80 135 -193 326 -252 425 -204 341 -547 920 -558 941 -10 18 -7 32 18 80 51
100 59 205 24 307 l-14 39 58 61 c69 74 68 73 503 547 189 206 418 456 509
554 91 99 192 209 224 245 56 63 80 89 221 241 80 87 187 203 670 730 225 245
679 739 1009 1099 331 359 607 662 615 673 13 17 6 27 -90 127 -57 60 -107
109 -110 110 -4 0 -46 -43 -95 -96z m4177 -11073 c3 -19 4 -92 1 -162 -4 -93
-2 -128 7 -128 6 0 43 31 82 69 98 97 94 94 118 81 32 -17 26 -34 -35 -100
l-56 -60 39 -53 c82 -110 96 -144 69 -167 -21 -17 -38 -4 -85 65 -77 114 -73
111 -110 89 -28 -17 -31 -23 -31 -67 0 -26 -5 -57 -10 -68 -15 -26 -49 -24
-58 4 -5 12 -5 114 0 227 4 113 5 222 2 243 -7 44 9 69 40 65 15 -2 23 -13 27
-38z m4161 -122 c24 -19 32 -93 12 -112 -18 -19 -54 -5 -54 20 0 12 -7 14 -32
8 -70 -15 -130 -58 -95 -68 6 -2 34 -10 61 -17 91 -23 140 -92 116 -164 -16
-47 -69 -75 -145 -75 -97 0 -162 43 -130 86 12 17 16 18 47 4 47 -20 133 -19
154 2 16 16 16 19 1 42 -11 16 -33 29 -59 36 -100 25 -138 60 -124 114 12 48
48 76 136 106 103 34 93 33 112 18z m-2614 -45 c4 -36 13 -41 33 -17 18 22 64
44 93 44 71 0 86 -33 97 -223 9 -131 8 -152 -6 -166 -24 -24 -49 -2 -57 50 -3
24 -7 87 -7 140 -1 63 -6 101 -15 114 -13 18 -14 18 -47 -1 -55 -32 -83 -94
-89 -198 -4 -68 -9 -91 -22 -99 -12 -8 -21 -7 -32 2 -14 11 -16 41 -16 190 0
186 4 205 45 199 15 -2 21 -12 23 -35z m3270 4 c3 -28 3 -28 30 -11 15 10 47
18 72 18 90 2 132 -55 134 -179 1 -129 -53 -190 -164 -183 l-60 3 0 -85 c0
-96 -7 -113 -41 -108 l-24 3 -7 275 c-7 288 -5 304 36 298 15 -2 22 -12 24
-31z m-9052 -4 c38 -19 50 -39 33 -59 -15 -18 -39 -17 -63 1 -46 35 -96 14
-131 -55 -45 -89 -28 -159 44 -181 32 -10 44 -8 90 11 55 24 76 19 69 -16 -4
-26 -83 -64 -130 -64 -82 0 -150 55 -163 129 -14 83 50 216 118 247 36 16 81
11 133 -13z m3560 12 c35 -24 40 -127 8 -139 -28 -11 -44 5 -44 45 0 25 -5 39
-12 39 -28 -1 -97 -40 -110 -62 -8 -13 -15 -69 -18 -137 -4 -96 -8 -116 -23
-125 -15 -9 -21 -7 -33 8 -11 15 -14 52 -13 155 0 169 8 216 33 216 10 0 24
-9 30 -20 6 -11 12 -22 13 -24 2 -2 12 4 22 13 20 19 85 45 111 46 9 0 25 -7
36 -15z m7399 -14 c34 -19 45 -58 20 -68 -10 -3 -30 1 -45 11 -40 23 -82 20
-108 -6 -26 -29 -61 -106 -62 -136 0 -43 28 -81 68 -93 33 -10 45 -8 91 11 48
21 54 22 68 7 22 -22 11 -41 -39 -66 -83 -40 -187 -16 -228 52 -55 89 9 266
110 306 31 12 85 4 125 -18z m-10128 -1 c49 -30 67 -73 68 -160 0 -127 -57
-200 -156 -200 -42 0 -53 5 -88 38 -99 94 -70 272 54 328 43 19 85 17 122 -6z
m682 6 c6 -7 18 -67 27 -132 8 -65 17 -120 19 -122 2 -2 22 55 45 126 31 100
45 132 60 137 39 12 45 -4 76 -183 20 -119 21 -119 61 53 14 61 31 116 38 124
19 19 55 5 55 -23 0 -30 -67 -263 -88 -305 -49 -100 -101 -41 -127 143 -8 59
-12 54 -56 -66 -68 -190 -107 -165 -150 95 -18 111 -20 139 -9 152 15 19 34
19 49 1z m1146 0 c105 -44 106 -281 1 -346 -20 -12 -51 -20 -76 -20 -147 0
-204 211 -89 330 49 50 102 62 164 36z m7453 -13 c16 -13 26 -28 24 -39 -16
-83 -13 -173 7 -232 12 -35 19 -67 16 -73 -10 -15 -41 -10 -59 10 -17 19 -18
19 -63 -1 -81 -36 -170 -4 -194 70 -17 50 -15 142 4 178 20 39 65 84 102 101
42 19 129 12 163 -14z m1702 8 c23 -12 38 -29 44 -50 14 -48 -15 -78 -132
-136 -56 -27 -102 -53 -102 -57 0 -5 15 -17 33 -29 47 -30 133 -23 177 15 30
25 35 26 48 12 47 -47 -61 -121 -163 -112 -107 9 -165 66 -165 164 0 88 47
178 105 202 37 16 119 11 155 -9z m-6703 -155 c2 -104 -1 -164 -9 -173 -13
-16 -44 -17 -53 -3 -9 14 -8 294 0 320 5 16 14 20 33 18 l27 -3 2 -159z m1736
139 c41 -29 41 -29 27 -135 -5 -41 -14 -121 -19 -176 -15 -167 -49 -204 -187
-204 -87 0 -119 13 -112 46 3 17 12 19 90 19 68 0 90 4 105 18 23 20 43 80 43
128 -1 29 -3 32 -13 19 -41 -53 -104 -64 -158 -27 -52 34 -71 80 -66 155 9
116 79 181 197 182 43 0 64 -6 93 -25z"/>
<path d="M13695 3834 c-47 -24 -51 -33 -47 -121 3 -73 6 -82 25 -87 48 -13 83
-6 108 20 20 22 24 35 23 89 -1 103 -37 136 -109 99z"/>
<path d="M5287 3810 c-69 -82 -26 -215 63 -195 47 10 70 48 70 114 0 80 -16
105 -66 109 -36 3 -45 -1 -67 -28z"/>
<path d="M7144 3832 c-6 -4 -21 -23 -33 -42 -40 -66 -19 -162 37 -175 66 -14
112 35 112 120 0 68 -25 105 -70 105 -19 0 -40 -4 -46 -8z"/>
<path d="M14585 3852 c-29 -10 -58 -33 -78 -62 -22 -31 -23 -127 -2 -157 21
-29 65 -37 108 -19 l36 14 -2 109 c-2 123 -7 132 -62 115z"/>
<path d="M11258 3817 c-33 -26 -48 -64 -48 -118 0 -80 75 -106 135 -46 26 26
34 45 44 101 14 81 11 86 -59 86 -32 0 -53 -7 -72 -23z"/>
<path d="M9790 14145 l-165 -166 115 -112 c63 -62 139 -134 168 -161 l53 -49
33 32 34 33 185 -556 185 -556 -756 0 -757 0 -135 135 c-74 75 -147 144 -161
155 l-26 19 -161 -159 c-89 -87 -162 -162 -162 -167 0 -5 32 -40 70 -78 39
-38 70 -73 70 -77 0 -5 -237 -245 -526 -534 l-527 -526 -76 76 -76 76 -160
-159 c-88 -88 -161 -164 -163 -169 -3 -9 301 -314 320 -321 5 -2 42 29 82 68
l71 71 528 -523 c290 -287 527 -526 527 -532 0 -5 -32 -42 -72 -82 l-72 -72
55 -58 c30 -31 103 -106 162 -165 119 -117 119 -118 169 -61 14 16 42 45 64
65 l39 38 528 -528 528 -528 -78 -77 -78 -77 167 -167 168 -168 160 160 c88
88 160 164 160 170 0 5 -33 42 -72 82 l-73 73 530 530 530 530 77 -77 78 -78
167 167 166 166 -76 79 -77 78 530 530 530 530 74 -74 c41 -40 79 -72 85 -70
13 5 321 310 321 318 0 4 -74 80 -165 171 l-165 165 -76 -79 -77 -78 -528 528
-528 528 76 79 76 78 -159 160 c-87 87 -165 159 -174 159 -8 0 -46 -31 -85
-70 l-70 -70 -530 530 -530 530 73 73 c39 40 72 77 72 82 0 10 -311 325 -320
325 -3 0 -79 -74 -170 -165z m857 -872 l523 -528 -67 -67 -67 -68 -301 0 -301
0 -187 563 c-103 309 -187 566 -187 571 0 13 41 56 54 56 5 0 245 -237 533
-527z m-240 -705 c6 -7 59 -160 119 -341 l109 -327 -260 -260 -260 -260 -77
77 -78 78 -78 -78 -77 -77 -530 530 -530 530 70 70 69 70 757 0 c593 0 759 -3
766 -12z m693 -60 l71 -72 -253 -253 c-139 -139 -254 -250 -256 -248 -5 5
-212 627 -212 637 0 4 130 7 289 8 l290 0 71 -72z m-2615 -168 c38 -38 74 -70
79 -70 6 0 43 33 83 72 l73 73 530 -530 530 -530 -68 -68 -68 -67 -1079 0
-1079 0 -63 62 c-35 34 -63 67 -63 73 0 10 1040 1055 1050 1055 3 0 37 -31 75
-70z m2865 -70 c9 0 46 32 84 70 38 39 72 69 75 68 3 0 241 -238 529 -527
l522 -526 -67 -68 -68 -68 -760 0 c-610 0 -762 3 -768 13 -4 7 -56 158 -115
335 l-108 323 260 260 260 260 71 -70 c39 -38 77 -70 85 -70z m-595 -731 c58
-172 105 -316 105 -319 0 -3 -133 -4 -295 -3 l-294 2 -66 68 -66 67 253 253
c139 139 254 251 255 249 2 -2 51 -144 108 -317z m-651 -199 l140 -139 -142
-143 -142 -142 -65 64 c-35 35 -61 68 -58 73 3 6 2 7 -4 4 -5 -3 -43 28 -84
69 l-74 74 140 140 c77 77 142 140 145 140 3 0 68 -63 144 -140z m2791 -1
l140 -140 -144 -140 c-80 -76 -147 -139 -150 -139 -4 0 -69 63 -146 140 l-140
140 140 140 c77 77 144 140 150 140 6 0 73 -63 150 -141z m-3182 -227 l67 -67
-530 -530 -530 -530 -73 73 c-40 39 -77 72 -82 72 -5 0 -42 -33 -82 -72 l-73
-73 -530 530 -530 530 67 67 67 68 1081 0 1081 0 67 -68z m1351 -498 l189
-566 -29 -29 -29 -29 -527 528 -528 527 67 68 66 67 301 0 301 0 189 -566z
m1429 503 c37 -35 67 -67 67 -71 0 -5 -91 -98 -202 -209 -112 -110 -350 -346
-529 -524 l-325 -324 -55 55 c-30 31 -64 63 -77 72 -22 14 -26 14 -58 -11 -20
-15 -36 -25 -37 -24 -1 2 -82 245 -180 539 -98 294 -181 541 -184 548 -4 9
151 12 754 12 l759 0 67 -63z m-2534 -237 c7 0 45 32 83 71 l71 71 529 -529
528 -529 -66 -67 -67 -67 -1081 0 -1080 0 -63 62 c-35 34 -63 66 -63 69 0 4
237 244 528 533 l527 525 70 -69 c39 -39 76 -70 84 -70z m-1236 -944 l129
-128 -138 -139 c-77 -76 -144 -139 -149 -139 -6 0 -73 63 -150 140 l-140 141
145 138 c117 113 148 137 159 128 8 -7 73 -70 144 -141z m2379 -213 l67 -68
-524 -527 c-289 -291 -529 -528 -533 -528 -5 0 -39 32 -76 70 -38 39 -73 70
-78 70 -6 0 -42 -31 -81 -70 -38 -38 -73 -70 -76 -70 -3 0 -242 236 -531 525
l-524 524 29 32 c17 17 48 49 70 70 l40 38 1075 1 1076 0 66 -67z"/>
<path d="M7350 13948 c-129 -115 -306 -273 -393 -351 -86 -77 -154 -144 -150
-148 41 -39 207 -89 293 -89 232 1 452 161 526 382 37 112 38 240 3 342 -13
39 -28 71 -34 72 -5 2 -116 -92 -245 -208z"/>
<path d="M15963 9152 c-21 -3 -23 -9 -23 -63 l0 -59 1970 0 1970 0 0 60 0 60
-1947 2 c-1072 2 -1958 2 -1970 0z"/>
<path d="M6140 7359 c-151 -15 -162 -17 -186 -40 -34 -32 -42 -93 -48 -374 -3
-137 -12 -347 -21 -465 -8 -118 -15 -336 -15 -483 l0 -269 31 -29 c40 -37 79
-38 119 -1 l30 27 6 305 c3 168 7 306 9 308 1 2 31 -2 66 -8 65 -12 130 -8
254 16 63 13 187 73 178 87 -3 6 -1 7 5 3 35 -21 220 181 209 226 -3 10 0 16
5 15 19 -4 40 95 41 193 0 73 -4 107 -20 146 -66 167 -231 297 -428 338 -83
17 -104 18 -235 5z m211 -199 c66 -13 118 -38 185 -89 42 -32 52 -36 60 -23 8
12 10 11 10 -6 0 -11 -4 -18 -8 -16 -14 9 -8 -7 15 -39 31 -44 31 -180 0 -247
-46 -99 -167 -187 -291 -211 -66 -12 -228 -8 -241 7 -4 5 -2 106 5 224 7 118
13 256 13 307 1 63 5 93 14 96 22 10 183 7 238 -3z"/>
<path d="M10041 7356 c-127 -18 -141 -45 -141 -271 0 -133 -7 -266 -30 -632
-5 -90 -11 -289 -11 -443 -2 -312 0 -318 65 -340 44 -14 97 7 115 46 7 16 11
96 11 222 0 108 3 240 6 292 l7 95 141 0 c126 1 149 3 217 27 196 69 329 194
379 357 28 88 28 240 0 314 -56 149 -227 291 -401 332 -76 17 -237 18 -358 1z
m292 -201 c135 -28 263 -124 287 -216 27 -97 -14 -223 -96 -299 -86 -79 -230
-125 -360 -114 -40 4 -76 9 -81 13 -5 3 -3 134 6 313 l15 307 40 4 c86 8 123
6 189 -8z"/>
<path d="M7320 7283 c-28 -11 -70 -58 -79 -88 -28 -100 96 -184 181 -124 91
65 59 194 -52 212 -19 3 -42 3 -50 0z"/>
<path d="M12543 7271 c-41 -26 -53 -49 -53 -105 0 -130 175 -170 234 -52 23
47 15 95 -23 138 -36 41 -109 50 -158 19z"/>
<path d="M14683 7172 c-49 -23 -56 -53 -51 -222 l4 -150 -30 5 c-92 14 -209
16 -237 5 -54 -23 -77 -109 -43 -159 26 -36 69 -49 195 -56 l116 -8 7 -66 c3
-36 8 -235 12 -441 3 -206 7 -385 10 -398 5 -26 58 -62 92 -62 40 0 79 27 94
67 25 63 28 153 15 528 -8 198 -10 364 -5 370 4 5 65 11 136 13 144 4 171 11
195 51 35 59 16 130 -41 157 -31 14 -56 16 -168 11 l-132 -6 -4 132 c-6 181
-28 232 -106 241 -15 2 -41 -3 -59 -12z"/>
<path d="M13195 6847 c-16 -8 -35 -25 -42 -38 -8 -16 -14 -121 -18 -309 -3
-157 -10 -339 -14 -405 -6 -75 -5 -172 2 -260 10 -133 12 -141 38 -167 20 -20
37 -28 64 -28 46 0 91 23 101 52 4 13 8 120 9 238 l1 215 35 90 c85 222 193
348 321 379 41 10 75 -9 95 -51 14 -32 17 -76 18 -298 2 -262 29 -556 55 -605
13 -24 61 -50 93 -50 13 0 39 10 58 23 51 34 56 70 35 240 -30 238 -36 309
-30 382 7 85 -11 303 -30 366 -47 154 -111 204 -261 204 -119 0 -178 -28 -289
-137 -43 -43 -81 -78 -83 -78 -1 0 -3 34 -3 75 0 77 -15 130 -43 153 -23 20
-78 24 -112 9z"/>
<path d="M7921 6823 l-28 -28 -7 -295 c-3 -162 -10 -351 -15 -420 -11 -146 3
-352 26 -388 8 -13 30 -30 48 -38 29 -12 38 -12 69 1 56 24 59 37 61 275 1
194 4 221 24 278 12 34 19 68 15 74 -4 6 -3 8 4 4 6 -3 14 4 18 16 15 50 98
180 142 224 90 88 195 119 240 71 34 -36 41 -106 40 -364 0 -189 4 -269 20
-389 12 -83 26 -162 33 -177 11 -25 53 -47 90 -47 33 0 65 21 84 56 17 32 18
43 6 147 -6 62 -18 159 -26 217 -9 60 -12 133 -9 170 9 99 -13 367 -34 423
-10 26 -22 44 -27 40 -4 -5 -5 -2 -1 4 12 21 -50 99 -96 121 -119 58 -250 32
-367 -73 -51 -45 -75 -70 -100 -101 -30 -38 -41 -20 -41 68 0 37 -4 77 -9 90
-28 72 -106 92 -160 41z"/>
<path d="M11498 6785 c-246 -62 -408 -306 -408 -613 0 -228 107 -421 280 -505
56 -26 79 -32 160 -35 78 -3 106 0 160 18 269 90 410 448 319 809 -36 143
-123 260 -228 309 -67 31 -197 39 -283 17z m197 -224 c84 -39 123 -114 138
-270 23 -237 -55 -393 -217 -435 -162 -43 -300 74 -314 265 -15 208 89 404
238 450 45 13 114 9 155 -10z"/>
<path d="M12533 6776 c-17 -8 -38 -27 -46 -43 -19 -38 -32 -332 -30 -690 1
-252 3 -285 19 -312 24 -40 72 -57 119 -41 68 22 70 32 70 330 0 146 4 364 9
485 l8 220 -29 27 c-36 34 -78 42 -120 24z"/>
<path d="M7274 6769 c-43 -21 -52 -63 -61 -269 -4 -107 -7 -318 -6 -468 2
-258 4 -275 23 -302 28 -39 81 -49 126 -25 19 10 37 27 41 39 5 12 8 143 8
291 0 149 4 363 9 477 l9 206 -31 31 c-32 33 -76 40 -118 20z"/>
</g>
</svg>
