<?xml version="1.0" standalone="no"?>
<!DOCTYPE svg PUBLIC "-//W3C//DTD SVG 20010904//EN"
 "http://www.w3.org/TR/2001/REC-SVG-20010904/DTD/svg10.dtd">
<svg version="1.0" xmlns="http://www.w3.org/2000/svg"
 width="300.000000pt" height="300.000000pt" viewBox="0 0 300.000000 300.000000"
 preserveAspectRatio="xMidYMid meet">
<metadata>
Created by potrace 1.10, written by Peter Selinger 2001-2011
</metadata>
<g transform="translate(0.000000,300.000000) scale(0.100000,-0.100000)"
fill="#000000" stroke="none">
<path d="M769 2501 c-22 -17 -24 -17 -36 -2 -9 12 -14 13 -24 4 -10 -10 -9
-16 1 -29 12 -13 12 -17 0 -25 -44 -26 -44 -24 27 -114 l69 -88 -23 -45 c-44
-86 -21 -226 47 -287 19 -17 22 -15 102 57 46 41 135 119 198 173 63 54 119
102 124 107 13 11 -49 75 -99 101 -42 22 -133 29 -190 14 -28 -7 -33 -3 -95
73 -36 44 -68 80 -71 80 -4 0 -17 -8 -30 -19z m41 -29 c0 -4 28 -38 63 -75
l62 -67 40 11 c80 22 175 -1 233 -57 20 -20 15 -29 -35 -68 -26 -21 -70 -58
-98 -85 -27 -26 -60 -54 -73 -63 -12 -8 -42 -33 -65 -55 -64 -60 -92 -76 -104
-61 -51 64 -62 174 -24 247 27 53 25 61 -48 148 -57 68 -58 79 -5 114 30 20
54 25 54 11z"/>
<path d="M426 1986 c-221 -242 -294 -315 -317 -320 -35 -7 -59 -48 -42 -74 5
-9 21 -22 34 -29 15 -8 98 -138 239 -376 172 -288 215 -368 209 -385 -6 -14
-2 -28 12 -45 11 -14 19 -41 19 -61 l0 -36 -115 0 -115 0 0 -100 0 -100 1220
0 1220 0 0 100 0 100 -1080 0 -1080 0 0 34 c0 19 8 48 18 65 19 35 11 59 -27
76 -13 6 -67 86 -138 205 -64 107 -162 272 -218 367 -69 115 -100 176 -94 185
5 7 6 20 4 28 -5 15 38 64 426 486 140 152 147 162 130 178 -16 15 -35 -3
-305 -298z m-279 -362 c3 -8 1 -24 -4 -35 -9 -21 -9 -21 -32 -1 -16 12 -22 25
-18 35 8 21 46 22 54 1z m468 -818 c17 -12 18 -17 6 -42 l-13 -29 -18 22 c-10
13 -16 32 -13 43 6 24 13 25 38 6z m350 -175 c182 0 332 -1 335 -1 3 0 3 -23
1 -51 -1 -28 1 -55 5 -59 5 -5 25 -5 44 -1 31 6 35 11 37 39 1 22 -6 39 -20
52 l-21 20 47 0 c51 0 53 -4 38 -57 -7 -25 -6 -35 7 -47 14 -12 20 -12 35 -1
15 10 18 23 14 59 l-4 45 176 3 c97 2 200 2 230 0 l53 -3 -20 -22 c-26 -28
-31 -59 -13 -80 28 -34 75 -10 75 38 0 13 -8 33 -19 45 -18 20 -18 20 26 20
309 2 762 -1 768 -4 3 -2 5 -28 4 -58 -1 -29 -2 -60 -3 -68 0 -13 -43 -15
-336 -13 -185 1 -339 5 -342 8 -3 3 4 15 16 28 28 29 28 55 0 78 -26 23 -36
24 -60 2 -21 -19 -25 -88 -6 -100 22 -13 -40 -18 -173 -15 l-127 3 13 27 c20
40 9 79 -25 91 -42 14 -64 -14 -58 -73 5 -39 3 -45 -16 -48 -11 -2 -163 -2
-336 -2 -173 1 -454 2 -623 3 l-308 1 3 72 3 73 97 0 c63 0 102 5 110 13 9 9
15 9 27 -2 13 -12 78 -14 346 -15z m386 -45 c10 9 19 12 19 6 0 -6 -6 -12 -12
-15 -10 -3 -10 -8 1 -21 8 -9 11 -19 8 -23 -4 -3 -9 2 -13 11 -8 21 -21 21
-27 -1 -3 -10 -5 5 -4 32 0 28 2 37 4 22 4 -28 5 -28 24 -11z m119 24 c0 -5
-4 -10 -10 -10 -5 0 -10 5 -10 10 0 6 5 10 10 10 6 0 10 -4 10 -10z m495 -20
c3 -5 -4 -11 -17 -11 -17 -1 -18 -3 -5 -6 9 -2 17 -11 17 -19 0 -19 -28 -30
-43 -15 -8 8 -5 11 14 12 16 1 19 3 7 6 -21 5 -24 29 -5 36 19 8 25 8 32 -3z
m129 -17 c7 -17 -12 -46 -24 -38 -5 3 -11 -5 -13 -17 -2 -13 -5 0 -6 29 -1 46
1 51 18 46 11 -3 22 -12 25 -20z m-624 -7 c0 -14 -4 -28 -10 -31 -6 -4 -10 7
-10 24 0 17 5 31 10 31 6 0 10 -11 10 -24z m258 -13 c-3 -32 -7 -38 -28 -40
l-25 -3 25 12 c25 11 25 11 3 15 -14 3 -23 12 -23 22 0 23 9 31 32 31 16 0 19
-6 16 -37z"/>
<path d="M1183 605 c-17 -19 -16 -70 0 -84 15 -12 27 -4 61 37 18 21 18 23 1
42 -21 23 -45 25 -62 5z m57 -25 c0 -6 -8 -10 -17 -8 -14 2 -17 -3 -15 -19 2
-13 -2 -23 -7 -23 -6 0 -11 14 -11 30 0 25 4 30 25 30 14 0 25 -5 25 -10z"/>
<path d="M1542 608 c-15 -15 -16 -74 -2 -83 20 -12 54 -14 67 -4 18 16 16 64
-3 83 -18 19 -45 21 -62 4z m54 -49 c1 -26 1 -28 -3 -6 -5 34 -23 36 -23 2 0
-14 -4 -25 -10 -25 -5 0 -10 15 -10 33 0 29 3 33 23 32 18 -1 22 -8 23 -36z"/>
<path d="M2170 598 c-31 -34 -25 -64 16 -86 51 -27 85 49 40 91 -25 22 -31 22
-56 -5z m50 -22 c0 -8 2 -21 5 -28 7 -18 -30 -21 -45 -4 -5 8 -8 21 -4 30 8
20 44 21 44 2z"/>
<path d="M2190 565 c0 -8 5 -15 10 -15 6 0 10 7 10 15 0 8 -4 15 -10 15 -5 0
-10 -7 -10 -15z"/>
<path d="M2302 597 c-27 -28 -28 -49 -4 -70 22 -20 46 -22 59 -4 15 18 10 76
-7 87 -21 14 -24 13 -48 -13z m36 -15 c-22 -4 -24 -32 -3 -32 8 0 15 -4 15
-10 0 -15 -26 -12 -40 5 -10 13 -10 19 5 35 10 11 23 16 29 12 7 -4 5 -8 -6
-10z"/>
<path d="M2426 595 c-9 -13 -16 -30 -16 -37 1 -24 27 -48 53 -48 40 0 55 70
19 98 -24 18 -38 15 -56 -13z m54 -15 c0 -5 -8 -14 -17 -20 -16 -10 -15 -11 5
-7 25 6 30 -10 6 -20 -21 -8 -46 19 -38 40 6 18 44 24 44 7z"/>
<path d="M641 591 c-16 -29 -14 -46 9 -66 16 -15 25 -16 44 -7 19 8 23 17 22
49 -1 35 -3 38 -33 41 -23 2 -34 -2 -42 -17z m47 -8 c-23 -6 -23 -33 -1 -33
13 0 14 -3 5 -12 -9 -9 -15 -9 -27 3 -20 20 -9 49 19 48 16 -1 17 -2 4 -6z"/>
<path d="M772 598 c-18 -18 -14 -62 7 -80 40 -34 95 36 60 78 -14 17 -51 18
-67 2z m53 -38 c0 -16 -6 -26 -18 -28 -19 -4 -32 20 -23 44 9 25 41 13 41 -16z"/>
<path d="M796 573 c-11 -11 -6 -23 9 -23 8 0 15 4 15 9 0 13 -16 22 -24 14z"/>
<path d="M903 604 c-15 -7 -17 -48 -3 -74 6 -12 20 -17 42 -16 26 1 36 8 47
31 9 19 11 33 4 44 -10 16 -66 25 -90 15z m35 -29 c15 26 16 0 1 -27 -9 -17
-13 -18 -20 -7 -5 8 -8 23 -8 34 0 20 1 20 8 0 8 -19 8 -19 19 0z m31 -21 c-6
-16 -13 -24 -16 -17 -5 13 16 58 23 50 3 -2 -1 -17 -7 -33z"/>
<path d="M1052 598 c-18 -18 -14 -63 6 -82 18 -15 21 -15 45 5 43 33 31 89
-18 89 -12 0 -26 -5 -33 -12z m55 -24 c7 -19 -20 -49 -36 -40 -12 8 -15 39 -4
49 12 12 33 7 40 -9z"/>
<path d="M1076 571 c-4 -7 -5 -15 -2 -18 9 -9 19 4 14 18 -4 11 -6 11 -12 0z"/>
<path d="M2060 565 c0 -8 5 -15 10 -15 6 0 10 7 10 15 0 8 -4 15 -10 15 -5 0
-10 -7 -10 -15z"/>
<path d="M1695 569 c-4 -6 -5 -13 -2 -16 7 -7 27 6 27 18 0 12 -17 12 -25 -2z"/>
<path d="M1476 2134 c-17 -15 -25 -29 -19 -32 44 -30 62 -55 81 -112 12 -35
22 -68 22 -72 0 -4 -50 -8 -112 -8 -99 0 -114 2 -134 21 l-22 20 -27 -27 c-21
-21 -24 -29 -13 -35 10 -6 -8 -29 -66 -88 -58 -58 -83 -78 -92 -70 -9 7 -20 3
-38 -16 l-25 -25 26 -26 c18 -18 28 -23 36 -15 8 8 33 -10 89 -66 61 -61 75
-80 66 -90 -17 -20 35 -72 55 -55 10 9 29 -5 90 -66 50 -51 76 -84 72 -93 -3
-8 5 -25 18 -37 l23 -22 24 25 23 25 -23 25 c-16 17 -27 22 -35 15 -8 -7 -35
14 -92 70 -44 45 -76 83 -71 86 11 7 340 5 347 -2 3 -2 -31 -40 -74 -84 -44
-44 -75 -80 -69 -80 6 0 43 34 84 75 52 55 76 73 85 65 16 -13 64 35 48 51 -7
7 14 34 70 89 56 55 83 76 89 67 5 -9 15 -4 35 16 l28 27 -28 28 c-20 20 -30
24 -35 14 -6 -8 -32 12 -88 68 -55 54 -77 83 -70 90 7 7 2 19 -17 38 -21 20
-30 24 -36 14 -6 -9 -28 8 -81 62 -40 42 -78 76 -84 76 -6 0 24 -35 67 -78 42
-42 77 -81 77 -85 0 -4 -24 -7 -53 -7 l-53 0 -27 82 c-25 77 -25 83 -10 100
16 18 15 20 -8 43 l-24 24 -29 -25z m42 -25 c-2 -6 -8 -10 -13 -10 -5 0 -11 4
-13 10 -2 6 4 11 13 11 9 0 15 -5 13 -11z m-208 -195 c11 -12 10 -18 -3 -32
-21 -21 -42 -3 -32 27 8 25 18 27 35 5z m420 -15 c0 -15 -5 -20 -22 -17 -15 2
-34 -9 -59 -37 l-38 -40 -9 25 c-25 67 -26 65 26 62 35 -3 52 1 61 12 19 22
41 20 41 -5z m-144 -52 l16 -49 -38 -39 c-30 -31 -40 -36 -52 -27 -10 9 -15 9
-21 -1 -5 -8 -31 11 -81 63 -40 42 -78 76 -84 76 -6 0 25 -36 69 -80 43 -44
77 -82 74 -84 -7 -7 -336 -9 -347 -2 -5 3 26 42 70 86 59 60 83 78 92 71 9 -8
19 -5 34 12 19 20 30 22 136 22 l116 0 16 -48z m119 13 c5 -8 11 -8 19 -1 9 8
33 -11 89 -67 43 -43 74 -81 71 -85 -4 -4 -60 -7 -124 -7 l-116 0 -15 47 -15
47 36 37 c38 41 46 44 55 29z m-86 -111 c16 -46 15 -49 -24 -49 -19 0 -35 -5
-35 -11 0 -7 15 -10 40 -7 l40 4 29 -88 c16 -49 29 -88 28 -88 -2 0 -39 36
-83 79 -57 56 -78 83 -71 90 8 8 8 14 0 22 -9 9 -4 20 20 44 18 18 35 33 39
34 3 0 11 -13 17 -30z m326 -79 c-19 -21 -19 -21 -39 -1 -19 20 -19 21 -1 41
19 21 19 21 39 1 19 -20 19 -21 1 -41z m-845 34 c11 -12 10 -18 -3 -31 -14
-14 -17 -14 -32 0 -13 14 -14 19 -3 31 17 19 23 19 38 0z m410 -15 c0 -14 -17
-10 -23 5 -4 10 -1 13 9 9 7 -3 14 -9 14 -14z m380 -17 c0 -17 -158 -163 -164
-153 -4 6 -11 9 -15 7 -4 -3 -18 27 -31 67 -12 40 -24 77 -26 82 -3 6 39 9
116 7 66 -2 120 -6 120 -10z m-420 0 c0 -4 -35 -42 -78 -85 -62 -62 -80 -75
-90 -65 -10 10 -14 10 -20 1 -6 -9 -34 13 -89 67 -44 43 -78 82 -75 85 8 8
352 6 352 -3z m26 -23 c4 -8 9 -8 17 0 8 8 32 -10 89 -66 43 -43 78 -81 78
-85 0 -9 -344 -11 -352 -3 -6 6 140 160 154 163 4 1 10 -3 14 -9z m-176 -183
c-16 -20 -34 -20 -50 -1 -10 13 -9 19 5 36 19 20 19 20 39 0 16 -17 17 -23 6
-35z m410 28 c11 -12 10 -18 -3 -32 -16 -15 -18 -15 -34 0 -13 14 -14 20 -3
32 7 9 16 16 20 16 4 0 13 -7 20 -16z"/>
<path d="M1088 2085 c-32 -28 -58 -55 -58 -59 0 -3 17 -6 38 -6 55 0 101 54
84 99 -6 17 -14 13 -64 -34z"/>
<path d="M2400 1370 c0 -6 107 -10 300 -10 193 0 300 4 300 10 0 6 -107 10
-300 10 -193 0 -300 -4 -300 -10z"/>
<path d="M896 1098 c-11 -35 -15 -237 -5 -243 16 -11 22 1 23 51 1 46 2 47 36
49 71 6 106 93 54 134 -30 24 -102 29 -108 9z m85 -28 c21 -12 25 -52 6 -68
-6 -6 -24 -13 -40 -17 -27 -7 -27 -7 -27 44 0 45 2 51 21 51 11 0 29 -5 40
-10z"/>
<path d="M1494 1097 c-2 -7 -3 -64 -2 -125 3 -117 19 -155 28 -67 5 47 7 50
34 52 70 5 102 91 50 132 -30 24 -102 29 -110 8z m94 -29 c16 -16 15 -53 -1
-66 -6 -6 -24 -13 -40 -17 -27 -7 -27 -7 -27 44 0 49 1 51 28 51 15 0 33 -5
40 -12z"/>
<path d="M1094 1089 c-10 -17 13 -36 27 -22 12 12 4 33 -11 33 -5 0 -12 -5
-16 -11z"/>
<path d="M1884 1089 c-3 -6 -2 -15 4 -21 13 -13 32 -2 32 18 0 16 -26 19 -36
3z"/>
<path d="M2216 1083 c-3 -3 -6 -18 -6 -33 0 -24 -3 -27 -25 -22 -18 3 -25 0
-25 -12 0 -10 9 -16 25 -16 24 0 25 -2 25 -75 0 -60 3 -75 15 -75 17 0 17 1
15 88 l-1 62 31 0 c39 0 36 24 -3 28 -21 3 -27 9 -27 27 0 25 -12 39 -24 28z"/>
<path d="M1196 1033 c-3 -3 -6 -46 -6 -95 0 -72 3 -88 15 -88 11 0 15 11 15
43 0 47 31 107 55 107 12 0 15 -13 15 -59 0 -68 6 -91 26 -91 11 0 13 15 8 78
-4 42 -11 83 -17 90 -13 17 -47 15 -69 -5 -16 -14 -18 -15 -18 0 0 18 -14 30
-24 20z"/>
<path d="M1987 1033 c-4 -3 -7 -46 -7 -95 0 -72 3 -88 15 -88 10 0 15 10 15
34 0 46 18 94 40 106 28 15 30 13 30 -27 0 -66 12 -113 27 -113 12 0 13 14 9
76 -2 41 -10 82 -16 90 -16 18 -45 18 -64 -1 -20 -20 -26 -19 -26 5 0 20 -11
26 -23 13z"/>
<path d="M1096 1023 c-3 -3 -6 -42 -6 -85 0 -63 3 -78 15 -78 12 0 15 15 15
79 0 74 -7 100 -24 84z"/>
<path d="M1722 1020 c-32 -13 -56 -75 -45 -114 19 -68 102 -74 130 -9 18 44 5
106 -27 123 -22 12 -27 12 -58 0z m60 -55 c13 -29 -1 -72 -28 -82 -24 -9 -57
33 -48 61 16 51 57 63 76 21z"/>
<path d="M1886 1023 c-3 -3 -6 -42 -6 -85 0 -63 3 -78 15 -78 12 0 15 15 15
79 0 74 -7 100 -24 84z"/>
</g>
</svg>
